<svg width="202" height="104" xmlns="http://www.w3.org/2000/svg" xmlns:xlink="http://www.w3.org/1999/xlink" xml:space="preserve" overflow="hidden"><defs><clipPath id="clip0"><rect x="86" y="205" width="202" height="104"/></clipPath></defs><g clip-path="url(#clip0)" transform="translate(-86 -205)"><path d="M26.8707 77.1273C22.0102 77.1273 17.2413 75.8433 13.0227 73.2755 4.86058 68.3232 0 59.7026 0 50.2565 0 45.4877 1.28393 40.8105 3.66836 36.6836L3.66836 36.6836C3.94349 36.1334 5.96109 32.7401 20.2677 7.88697 23.7526 1.92589 26.779 0.183418 34.666 1.62908e-15L34.7577 1.62908e-15 65.8471 1.62908e-15 47.4136 32.0064 49.8897 36.3168C52.3658 40.5354 53.7415 45.3042 53.7415 50.1648 53.7415 65.0217 41.6359 77.1273 26.8707 77.1273Z" fill="#FFFFFF" transform="matrix(1 0 0 1.34842 86.1201 205)"/><path d="M43.8369 32.0064 60.6197 3.0264 34.7577 3.0264C27.6044 3.20982 25.6785 4.67716 22.9273 9.44603 22.9273 9.44603 6.32792 38.2427 6.32792 38.2427 4.21861 41.7276 3.0264 45.8545 3.0264 50.2565 3.0264 58.9689 7.61185 66.489 14.5817 70.7076 18.1584 72.817 22.377 74.1009 26.8707 74.1009 39.9851 74.1009 50.7151 63.4626 50.7151 50.2565 50.7151 45.7628 49.4312 41.5442 47.3218 37.9675L43.8369 32.0064Z" fill="#FFFFFF" transform="matrix(1 0 0 1.34842 86.1201 205)"/><path d="M40.0768 50.2565C40.0768 57.5933 34.1157 63.4626 26.8707 63.4626 19.534 63.4626 13.6646 57.5015 13.6646 50.2565 13.6646 42.9198 19.6257 37.0504 26.8707 37.0504 34.2075 37.0504 40.0768 42.9198 40.0768 50.2565" fill="#00A19C" transform="matrix(1 0 0 1.34842 86.1201 205)"/><path d="M43.8369 32.0064 60.6197 3.0264 34.7577 3.0264C27.6044 3.20982 25.6785 4.67716 22.9273 9.44603 22.9273 9.44603 6.32792 38.2427 6.32792 38.2427 4.21861 41.7276 3.0264 45.8545 3.0264 50.2565 3.0264 58.9689 7.61185 66.489 14.5817 70.7076 18.1584 72.817 22.377 74.1009 26.8707 74.1009 39.9851 74.1009 50.7151 63.4626 50.7151 50.2565 50.7151 45.7628 49.4312 41.5442 47.3218 37.9675L43.8369 32.0064ZM34.9411 9.1709 50.0731 9.1709 40.352 25.9536 37.0504 20.176 30.9059 9.53774C31.7313 9.26261 33.0152 9.1709 34.9411 9.1709M26.8707 67.9564C22.5604 67.9564 18.5252 66.3973 15.4071 63.8295 11.5553 60.6197 9.07919 55.6674 9.07919 50.2565 9.07919 46.955 9.99628 43.9286 11.5553 41.2691 11.5553 41.2691 26.779 14.8569 26.8707 14.7652L32.8318 25.0366 32.8318 25.0366 32.8318 25.0366 42.1861 41.2691C42.1861 41.2691 42.1861 41.2691 42.1861 41.2691 43.7452 43.9286 44.6623 46.955 44.6623 50.2565 44.5706 60.0694 36.6836 67.9564 26.8707 67.9564" fill="#00A19C" transform="matrix(1 0 0 1.34842 86.1201 205)"/><path d="M127.292 36.1334 127.292 36.1334C127.292 32.3733 124.541 30.1723 120.322 30.1723L113.719 30.1723C113.077 30.1723 112.527 30.7225 112.527 31.2728L112.527 46.955 117.204 46.955 117.204 42.7364C117.204 42.4613 117.479 42.1861 117.754 42.1861L119.405 42.1861 122.615 46.955 128.026 46.955 124.174 41.3608C126.1 40.352 127.292 38.6095 127.292 36.1334ZM122.615 36.3168C122.615 37.6007 121.606 38.5178 119.955 38.5178L117.204 38.5178 117.204 34.8494C117.204 34.4826 117.571 34.1157 117.938 34.1157L119.955 34.1157C121.698 34.024 122.615 34.8494 122.615 36.3168L122.615 36.3168 122.615 36.3168Z" fill="#3D3935" transform="matrix(1 0 0 1.34842 86.1201 205)"/><path d="M138.205 29.8054C133.07 29.8054 129.126 33.7489 129.126 38.5178L129.126 38.5178C129.126 43.3784 132.978 47.2301 138.114 47.2301 143.249 47.2301 147.193 43.2867 147.193 38.5178L147.193 38.5178C147.285 33.6572 143.433 29.8054 138.205 29.8054M142.516 38.6095C142.516 40.9939 140.865 43.1032 138.205 43.1032 135.638 43.1032 133.895 40.9939 133.895 38.6095L133.895 38.5178C133.895 36.1334 135.638 34.024 138.114 34.024 140.773 34.024 142.516 36.1334 142.516 38.6095L142.516 38.6095 142.516 38.6095Z" fill="#3D3935" transform="matrix(1 0 0 1.34842 86.1201 205)"/><path d="M160.949 31.1811 160.949 38.9763 154.071 30.0806 150.953 30.0806C150.311 30.0806 149.761 30.6308 149.761 31.2728L149.761 46.8633 154.346 46.8633 154.346 37.6924 161.5 46.8633 165.535 46.8633 165.535 30.1723 162.142 30.1723C161.5 30.1723 160.949 30.6308 160.949 31.1811" fill="#3D3935" transform="matrix(1 0 0 1.34842 86.1201 205)"/><path d="M95.5608 31.2728 95.5608 34.2075 100.605 34.2075 100.605 46.8633 105.282 46.8633 105.282 34.7577C105.282 34.4826 105.557 34.2075 105.832 34.2075L110.326 34.2075 110.326 30.0806 96.753 30.0806C96.111 30.1723 95.5608 30.7225 95.5608 31.2728" fill="#3D3935" transform="matrix(1 0 0 1.34842 86.1201 205)"/><path d="M79.9703 31.2728 79.9703 46.8633 93.4515 46.8633 93.4515 42.9198 84.5557 42.9198 84.5557 40.9022C84.5557 40.6271 84.8308 40.2603 85.106 40.2603L92.351 40.2603 92.351 36.5919 84.464 36.5919 84.464 34.666C84.464 34.3909 84.7391 34.024 85.0142 34.024L93.3598 34.024 93.3598 30.0806 81.1625 30.0806C80.5205 30.1723 79.9703 30.6308 79.9703 31.2728" fill="#3D3935" transform="matrix(1 0 0 1.34842 86.1201 205)"/><path d="M195.524 36.5002C193.231 35.9499 192.589 35.6748 192.589 34.8494L192.589 34.8494C192.589 34.2075 193.139 33.7489 194.24 33.7489 195.248 33.7489 196.349 34.024 197.449 34.5743 197.449 34.5743 197.725 34.666 197.816 34.7577 198.091 34.9411 198.458 35.0328 198.917 34.9411 199.284 34.8494 199.467 34.5743 199.742 34.2075L201.21 32.1899C199.375 30.7225 197.174 29.9888 194.331 29.9888 190.296 29.9888 187.82 32.2816 187.82 35.3997L187.82 35.4914C187.82 38.9763 190.571 39.9851 194.148 40.8105 196.441 41.3608 196.991 41.7276 196.991 42.3696L196.991 42.3696C196.991 43.1032 196.349 43.5618 195.065 43.5618 193.598 43.5618 192.222 43.1949 190.846 42.3696 190.48 42.1861 190.021 41.911 189.379 42.0944 189.104 42.1861 188.921 42.2779 188.737 42.553L186.995 44.6623C189.012 46.4965 191.855 47.4136 194.882 47.4136 198.917 47.4136 201.668 45.396 201.668 41.911L201.668 41.8193C201.76 38.6095 199.375 37.3256 195.524 36.5002" fill="#3D3935" transform="matrix(1 0 0 1.34842 86.1201 205)"/><path d="M172.596 46.955 173.422 44.8457C173.513 44.4789 173.789 44.2037 174.155 44.112L180.116 44.112 181.309 46.955 186.261 46.955 179.199 30.1723 175.348 30.1723C174.797 30.264 174.522 30.5391 174.339 30.9059L167.552 46.955 172.596 46.955 172.596 46.955ZM176.998 35.6748 178.833 40.4437 175.072 40.4437 176.998 35.6748Z" fill="#3D3935" transform="matrix(1 0 0 1.34842 86.1201 205)"/><path d="M67.9564 46.955C67.9564 45.6711 67.9564 42.9198 67.9564 42.7364 67.9564 42.553 68.1398 42.2779 68.3232 42.1861 68.4149 42.1861 68.5066 42.1861 68.5983 42.1861 69.2403 42.1861 69.7906 42.1861 70.4325 42.1861 71.7164 42.1861 72.9087 42.0944 74.1009 41.6359 75.3848 41.1773 76.4853 40.4437 77.1273 39.2515 77.8609 38.1509 78.0444 36.7753 77.9527 35.4914 77.8609 34.4826 77.5858 33.5655 77.0356 32.7401 75.8433 30.9976 73.8258 30.264 71.8082 30.1723 71.533 30.1723 71.2579 30.1723 70.9828 30.1723 70.1574 30.1723 69.4237 30.1723 68.5983 30.1723 67.4978 30.1723 66.3973 30.1723 65.2968 30.1723 64.4714 30.1723 63.1875 30.1723 63.1875 31.2728 63.1875 31.823 63.1875 32.3733 63.1875 32.9235L63.1875 46.955 67.9564 46.955 67.9564 46.955ZM73.3672 36.3168C73.3672 37.6007 72.3584 38.5178 70.7076 38.5178L67.9564 38.5178 67.9564 34.8494C67.9564 34.4826 68.3232 34.1157 68.69 34.1157L70.7076 34.1157C72.3584 34.024 73.3672 34.8494 73.3672 36.3168L73.3672 36.3168 73.3672 36.3168Z" fill="#3D3935" transform="matrix(1 0 0 1.34842 86.1201 205)"/></g></svg>