<svg width="298" height="30" fill="none" xmlns="http://www.w3.org/2000/svg"><g clip-path="url(#clip0_3_20)" fill="#E9623E"><path d="M0 .257V29.4h22.231v-5.743H6.266V17.4h13.82v-5.743H6.265V6h15.622V.257H0zm55.878 0L49.526 9.6 43.518.257H36.05L45.664 14.4l-10.215 15h7.468l6.61-10.2 6.35 10.2h7.468l-10.214-15L63.002.257h-7.124zm21.544 0V29.4h21.974v-5.743H83.773V17.4H97.25v-5.743H83.774V6h15.621V.257H77.422zm52.53 16.8h-7.467V23.4h7.467c2.747 0 4.55-.943 4.55-3.343.257-1.457-1.202-3-4.55-3zm3.005-8.4c0-1.8-1.46-3-4.206-3h-6.266v6h6.008c2.661.343 4.464-.6 4.464-3zm-16.738-8.4h13.476c3.262 0 6.008.943 7.467 2.743a7.107 7.107 0 012.146 4.8c0 3.257-1.802 5.057-3.948 6.257 3.347 1.2 5.407 3.343 5.407 7.2 0 5.4-4.205 8.143-10.815 8.143h-13.733V.257zm39.569 0V29.4h22.231v-5.743H162.14V17.4h13.819v-5.743H162.14V6h15.622V.257h-21.974zm57.337 0V18L199.649.257h-6.008V29.4h6.266V10.8l14.162 18.6h5.408V.257h-6.352zM235.7 16.8V.257h6.266V16.8c0 4.8 2.403 7.2 6.265 7.2 3.863 0 6.352-2.4 6.352-6.943V.257h6.266V16.8c0 8.657-4.807 13.2-12.618 13.2-7.81 0-12.531-4.543-12.531-13.2zm38.367 8.057l3.949-4.457c2.661 2.057 5.407 3.6 8.669 3.6 3.262 0 4.206-1.2 4.206-2.743 0-1.457-.859-2.4-6.009-3.6-5.15-1.2-9.613-3-9.613-9 0-5.4 4.206-8.657 10.214-8.657a16.752 16.752 0 0110.815 3.6l-3.261 4.8c-2.747-1.8-5.15-2.743-7.554-2.743-2.403 0-3.605 1.2-3.605 2.4 0 1.8 1.202 2.4 6.352 3.943 5.15 1.543 9.27 3.6 9.27 8.657 0 5.743-4.463 9-10.472 9-6.008 0-9.613-1.457-12.961-4.8z"/></g><defs><clipPath id="clip0_3_20"><path fill="#fff" d="M0 0h297.5v30H0z"/></clipPath></defs></svg>