<svg id="f9be7876-3632-4149-b0a9-acb3f456619d" data-name="Ebene 1" xmlns="http://www.w3.org/2000/svg" xmlns:xlink="http://www.w3.org/1999/xlink" viewBox="0 0 56.69291 22.51415"><defs><style>.b77f0cd0-2212-41ec-a2c1-e3f299c67650{fill:url(#f5cdf3f3-ad90-4991-8b77-10df647ba33c);}.b06ff9a8-7fe0-475c-9ac9-bcf06ac71854{fill:url(#a288fdf8-75e9-4a90-ad6e-24fe3166dec5);}.a72c6227-dd68-4162-ac39-9f38a8740739{fill:url(#bc2761d5-d901-4137-9a76-6c4f60e56bca);}.a003419f-30cf-4932-8b90-c56042a41e7a{fill:url(#ae774235-33d8-496c-9dea-127365cbd0e3);}.f86bdfcf-0e7c-46a1-8b35-9a5f32664985{fill:url(#a0e86829-2b78-4ede-8171-9317f04b3d09);}.f8a9ae2c-9c0f-4771-a057-1136580f6d7f{fill:url(#b81862f8-0b95-4c22-82df-c9f4e5a3d39e);}</style><linearGradient id="f5cdf3f3-ad90-4991-8b77-10df647ba33c" x1="66.84761" y1="17.47416" x2="73.90867" y2="17.47416" gradientUnits="userSpaceOnUse"><stop offset="0" stop-color="#334b99"/><stop offset="0.50513" stop-color="#0c7cac"/><stop offset="1" stop-color="#0c7cac"/></linearGradient><linearGradient id="a288fdf8-75e9-4a90-ad6e-24fe3166dec5" x1="62.04395" y1="17.47403" x2="69.10501" y2="17.47403" xlink:href="#f5cdf3f3-ad90-4991-8b77-10df647ba33c"/><linearGradient id="bc2761d5-d901-4137-9a76-6c4f60e56bca" x1="56.80046" y1="17.47398" x2="62.63155" y2="17.47398" gradientUnits="userSpaceOnUse"><stop offset="0" stop-color="#334b99"/><stop offset="0.78077" stop-color="#0c7cac"/><stop offset="1" stop-color="#0c7cac"/></linearGradient><linearGradient id="ae774235-33d8-496c-9dea-127365cbd0e3" x1="14.46458" y1="27.67731" x2="40.65899" y2="27.67731" xlink:href="#f5cdf3f3-ad90-4991-8b77-10df647ba33c"/><linearGradient id="a0e86829-2b78-4ede-8171-9317f04b3d09" x1="14.23585" y1="27.21757" x2="40.43026" y2="27.21757" xlink:href="#bc2761d5-d901-4137-9a76-6c4f60e56bca"/><linearGradient id="b81862f8-0b95-4c22-82df-c9f4e5a3d39e" x1="14.23585" y1="29.82779" x2="40.43026" y2="29.82779" xlink:href="#bc2761d5-d901-4137-9a76-6c4f60e56bca"/></defs><path class="b77f0cd0-2212-41ec-a2c1-e3f299c67650" d="M69.73958,15.96233a1.51183,1.51183,0,1,0,1.51183,1.5117A1.51165,1.51165,0,0,0,69.73958,15.96233Z" transform="translate(-14.5585 -14.5585)"/><path class="b06ff9a8-7fe0-475c-9ac9-bcf06ac71854" d="M63.90848,15.37459a2.09944,2.09944,0,1,0,2.09958,2.09931A2.09944,2.09944,0,0,0,63.90848,15.37459Z" transform="translate(-14.5585 -14.5585)"/><path class="a72c6227-dd68-4162-ac39-9f38a8740739" d="M59.716,14.5585a2.91548,2.91548,0,1,0,2.91554,2.91541A2.91554,2.91554,0,0,0,59.716,14.5585" transform="translate(-14.5585 -14.5585)"/><path class="a003419f-30cf-4932-8b90-c56042a41e7a" d="M25.78537,32.94957a1.44354,1.44354,0,0,0-.99375.44514,4.20163,4.20163,0,0,1-2.966,1.06764,4.68454,4.68454,0,0,1-1.7871-.34125,4.52623,4.52623,0,0,1-2.44709-2.40974,4.45852,4.45852,0,0,1-.34862-1.75737V25.58223a.46319.46319,0,0,1,.46327-.46313h5.42454a1.30512,1.30512,0,0,0,.94168-.36347,1.19473,1.19473,0,0,0,.37819-.89627,1.35259,1.35259,0,0,0-.39319-.9504,1.25985,1.25985,0,0,0-.92668-.38515H17.70609a.46345.46345,0,0,1-.46327-.46355V19.617a1.29782,1.29782,0,0,0-.40028-.94918,1.47482,1.47482,0,0,0-.44514-.2818,1.35276,1.35276,0,0,0-.51917-.104,1.25366,1.25366,0,0,0-.919.38582,1.29663,1.29663,0,0,0-.40069.94918V29.92427a6.95773,6.95773,0,0,0,.56347,2.78807,7.19474,7.19474,0,0,0,1.57224,2.29876,7.09771,7.09771,0,0,0,2.31321,1.52,7.34786,7.34786,0,0,0,2.81821.54152,6.50862,6.50862,0,0,0,4.67169-1.77986,1.60372,1.60372,0,0,0,.34819-.52627,1.55759,1.55759,0,0,0,.12625-.60069,1.19035,1.19035,0,0,0-1.18639-1.21625Z" transform="translate(-14.5585 -14.5585)"/><path class="f86bdfcf-0e7c-46a1-8b35-9a5f32664985" d="M41.73847,18.727a1.34659,1.34659,0,0,0-.37834-.9714,1.25351,1.25351,0,0,0-.94154-.393,1.2295,1.2295,0,0,0-.93431.393,1.36023,1.36023,0,0,0-.37151.971l.0004,4.13a.72539.72539,0,0,1-.72407.7264c-.014,0-.02908-.00107-.04285-.00173a.78449.78449,0,0,1-.31926-.08621,6.7339,6.7339,0,0,0-2.259-.79907c-.03667-.00709-.07349-.01349-.11057-.0199-.04376-.00695-.08766-.013-.1317-.01908a7.20778,7.20778,0,0,0-3.80541.48208,7.31938,7.31938,0,0,0-4.13753,4.56631c-.0184.0593-.03394.11929-.05085.17887-.013.0469-.0274.093-.03953.14029a7.16509,7.16509,0,0,0-.22878,1.81068,7.079,7.079,0,0,0,.56347,2.7953A7.174,7.174,0,0,0,28.977,34.49588a7.29529,7.29529,0,0,0,1.21679,1.14494c.08113.06081.16429.11916.24786.17642l.02018.01432a7.29585,7.29585,0,0,0,1.25852.68481,7.24685,7.24685,0,0,0,5.56879,0c.1197-.05044.23722-.10415.35283-.16005l.03668-.01855c.09325-.04566.18555-.09256.27607-.14165l.02877-.01622a7.164,7.164,0,0,0,.8506-.54712c.03027-.0225.05931-.04663.08917-.06966.0574-.04445.11506-.08835.17124-.13456A7.23176,7.23176,0,0,0,41.75128,29.827c0-.14029-.00505-.27921-.01281-.41759ZM38.76484,31.60746A4.58984,4.58984,0,0,1,31.23827,33.083a4.61824,4.61824,0,0,1-.99348-1.47556,4.58828,4.58828,0,0,1,0-3.5446,4.64011,4.64011,0,0,1,2.46932-2.46918,4.70071,4.70071,0,0,1,3.5889,0,4.63038,4.63038,0,0,1,1.47557.99347,4.63854,4.63854,0,0,1,.98626,5.02031Z" transform="translate(-14.5585 -14.5585)"/><path class="f8a9ae2c-9c0f-4771-a057-1136580f6d7f" d="M57.11249,27.00256a7.21274,7.21274,0,0,0-3.90071-3.86349,7.24091,7.24091,0,0,0-5.58364.0075,7.24146,7.24146,0,0,0-2.32835,1.55723c-.01431.014-.02754.0289-.04158.04308a7.16027,7.16027,0,0,0-2.094,5.08847,7.18034,7.18034,0,0,0,2.13557,5.11655,7.23624,7.23624,0,0,0,2.32835,1.557,7.12812,7.12812,0,0,0,2.80307.56375c.081,0,.16019-.00287.24008-.00465v.00246a7.25387,7.25387,0,0,0,4.35921-1.4423,5.31468,5.31468,0,0,0,.98395-.94085,2.05779,2.05779,0,0,0,.2437-.4368c.01293-.03124.02432-.06277.03453-.09458l.009-.02807c.00944-.032.01722-.06418.024-.09655.00385-.01754.00817-.035.01127-.05263l.00049-.004a1.13448,1.13448,0,0,0,.015-.23l-.00008-.00771q-.00165-.041-.00661-.08226a1.23848,1.23848,0,0,0-2.09368-.76891,1.53856,1.53856,0,0,0-.13077.12051,4.796,4.796,0,0,1-3.45,1.542V34.548c-.07825.0019-.15773.00327-.24008.00327a4.38934,4.38934,0,0,1-2.81779-1.00835,4.82942,4.82942,0,0,1-.97876-1.12722,4.26654,4.26654,0,0,1-.49776-1.12723.21047.21047,0,0,1,.20245-.26681H56.42277a1.24364,1.24364,0,0,0,.91945-.35584,1.207,1.207,0,0,0,.35611-.88986A7.09943,7.09943,0,0,0,57.11249,27.00256Zm-2.68786,1.82417H46.58654a.46283.46283,0,0,1-.4446-.59756,4.61479,4.61479,0,0,1,.374-.86328A4.47085,4.47085,0,0,1,48.85176,25.371a4.731,4.731,0,0,1,4.61947.78612,4.458,4.458,0,0,1,1.39363,2.05772A.46566.46566,0,0,1,54.42463,28.82673Z" transform="translate(-14.5585 -14.5585)"/></svg>